<?xml version="1.0" encoding="UTF-8" standalone="no"?>
<!-- Generator: Adobe Illustrator 15.1.0, SVG Export Plug-In . SVG Version: 6.00 Build 0)  -->

<svg
   xmlns:dc="http://purl.org/dc/elements/1.1/"
   xmlns:cc="http://creativecommons.org/ns#"
   xmlns:rdf="http://www.w3.org/1999/02/22-rdf-syntax-ns#"
   xmlns:svg="http://www.w3.org/2000/svg"
   xmlns="http://www.w3.org/2000/svg"
   xmlns:xlink="http://www.w3.org/1999/xlink"
   xmlns:sodipodi="http://sodipodi.sourceforge.net/DTD/sodipodi-0.dtd"
   xmlns:inkscape="http://www.inkscape.org/namespaces/inkscape"
   version="1.1"
   id="Ebene_1"
   x="0px"
   y="0px"
   viewBox="0 0 231.8164 292.312"
   enable-background="new 0 0 841.89 595.28"
   xml:space="preserve"
   inkscape:version="0.91 r13725"
   sodipodi:docname="icon_dblp_bw2.svg"><metadata
     id="metadata49"><rdf:RDF><cc:Work
         rdf:about=""><dc:format>image/svg+xml</dc:format><dc:type
           rdf:resource="http://purl.org/dc/dcmitype/StillImage" /><dc:title></dc:title></cc:Work></rdf:RDF></metadata><defs
     id="defs47"><clipPath
       id="SVGID_4_-3"><use
         xlink:href="#SVGID_3_"
         overflow="visible"
         id="use21-6"
         style="overflow:visible"
         x="0"
         y="0"
         width="841.89001"
         height="595.28003" /></clipPath><clipPath
       id="SVGID_4_-7"><use
         xlink:href="#SVGID_3_"
         overflow="visible"
         id="use21-0"
         style="overflow:visible"
         x="0"
         y="0"
         width="841.89001"
         height="595.28003" /></clipPath><clipPath
       id="SVGID_4_-9"><use
         xlink:href="#SVGID_3_"
         overflow="visible"
         id="use21-2"
         style="overflow:visible"
         x="0"
         y="0"
         width="841.89001"
         height="595.28003" /></clipPath><clipPath
       id="SVGID_4_-9-7"><use
         xlink:href="#SVGID_3_"
         overflow="visible"
         id="use21-2-7"
         style="overflow:visible"
         x="0"
         y="0"
         width="841.89001"
         height="595.28003" /></clipPath></defs><sodipodi:namedview
     pagecolor="white"
     bordercolor="white"
     borderopacity="1"
     objecttolerance="10"
     gridtolerance="10"
     guidetolerance="10"
     inkscape:pageopacity="0"
     inkscape:pageshadow="2"
     inkscape:window-width="1343"
     inkscape:window-height="967"
     id="namedview45"
     showgrid="false"
     inkscape:zoom="0.3"
     inkscape:cx="135.0852"
     inkscape:cy="143.70255"
     inkscape:window-x="2006"
     inkscape:window-y="28"
     inkscape:window-maximized="0"
     inkscape:current-layer="g15"
     fit-margin-left="10"
     fit-margin-right="10"
     fit-margin-bottom="10"
     fit-margin-top="10" /><g
     id="g15"
     inkscape:export-filename="C:\Users\mra\Dropbox\Design Logo DBLP\Treffen 2013-01-24\logo.144x56.png"
     inkscape:export-xdpi="18.58"
     inkscape:export-ydpi="18.58"
     transform="translate(-63.000319,-151.68801)"><defs
       id="defs17"><rect
         id="SVGID_3_"
         x="73"
         y="161.688"
         width="697.677"
         height="272.31201" /></defs><clipPath
       id="SVGID_4_"><use
         xlink:href="#SVGID_3_"
         overflow="visible"
         id="use21"
         style="overflow:visible"
         x="0"
         y="0"
         width="841.89001"
         height="595.28003" /></clipPath><path
       clip-path="url(#SVGID_4_)"
       d="m 163.63,258.733 c 0,0 -6.132,2.866 -4.627,9.306 -1.069,-5.631 6.082,-1.248 6.082,-1.248 l 20.827,12.771 -7.431,-27.731 -14.851,6.902 z m -4.589,9.494 c 0.011,0.041 0.013,0.079 0.024,0.121 l 0.037,0.136 c -0.021,-0.088 -0.043,-0.175 -0.061,-0.257"
       id="path27"
       inkscape:export-filename="C:\Users\mra\Dropbox\Design Logo DBLP\Treffen 2013-01-24\dblp-icon.64x64.png"
       inkscape:export-xdpi="21.152206"
       inkscape:export-ydpi="21.152206"
       style="fill:black;fill-opacity:1"
       inkscape:connector-curvature="0" /><path
       clip-path="url(#SVGID_4_)"
       d="m 198.896,328.193 c -0.044,-0.236 -0.077,-0.465 -0.143,-0.711 l -12.84,-47.92 -20.827,-12.771 c 0,0 -7.152,-4.384 -6.082,1.248 0.014,0.064 0.021,0.123 0.037,0.188 0.018,0.082 0.041,0.169 0.062,0.255 l 12.759,47.616 20.872,12.799 c -0.002,0 6.666,4.086 6.162,-0.704"
       id="path29"
       inkscape:export-filename="C:\Users\mra\Dropbox\Design Logo DBLP\Treffen 2013-01-24\dblp-icon.64x64.png"
       inkscape:export-xdpi="21.152206"
       inkscape:export-ydpi="21.152206"
       inkscape:connector-curvature="0"
       style="fill:black" /><path
       clip-path="url(#SVGID_4_)"
       d="m 198.896,328.193 c 0.505,4.79 -6.164,0.704 -6.164,0.704 l -20.872,-12.799 7.476,27.902 14.852,-6.904 c 0,0 5.869,-2.747 4.708,-8.903"
       id="path31"
       inkscape:export-filename="C:\Users\mra\Dropbox\Design Logo DBLP\Treffen 2013-01-24\dblp-icon.64x64.png"
       inkscape:export-xdpi="21.152206"
       inkscape:export-ydpi="21.152206"
       style="fill:black;fill-opacity:1"
       inkscape:connector-curvature="0" /><path
       clip-path="url(#SVGID_4_)"
       d="m 171.859,316.099 -57.983,-35.554 c -7.712,-4.729 -9.497,-11.392 -9.497,-11.392 L 99.096,249.439 77.882,259.3 c 0,0 -6.351,2.951 -4.565,9.613 l 27.847,103.929 c 0,0 1.785,6.661 8.136,3.71 L 179.335,344"
       id="path33"
       inkscape:export-filename="C:\Users\mra\Dropbox\Design Logo DBLP\Treffen 2013-01-24\dblp-icon.64x64.png"
       inkscape:export-xdpi="21.152206"
       inkscape:export-ydpi="21.152206"
       style="fill:black;fill-opacity:1"
       inkscape:connector-curvature="0" /><path
       clip-path="url(#SVGID_4_)"
       d="m 171.859,316.099 -12.759,-47.615 -0.036,-0.136 c -0.011,-0.042 -0.014,-0.08 -0.025,-0.12 -0.016,-0.064 -0.022,-0.125 -0.037,-0.188 -1.505,-6.439 4.626,-9.305 4.626,-9.305 l 14.852,-6.904 -7.577,-28.275 c 0,0 -1.785,-6.662 -8.135,-3.711 l -63.673,29.596 5.282,19.714 c 0,0 1.785,6.662 9.497,11.392"
       id="path35"
       inkscape:export-filename="C:\Users\mra\Dropbox\Design Logo DBLP\Treffen 2013-01-24\dblp-icon.64x64.png"
       inkscape:export-xdpi="21.152206"
       inkscape:export-ydpi="21.152206"
       inkscape:connector-curvature="0"
       style="fill:black" /><path
       clip-path="url(#SVGID_4_)"
       d="m 170.818,223.061 c 0,0 -1.785,-6.662 -9.498,-11.392 L 82.466,163.315 c 0,0 -7.713,-4.729 -5.928,1.934 l 22.559,84.19 63.674,-29.596 c 6.35,-2.951 8.135,3.711 8.135,3.711"
       id="path37"
       inkscape:export-filename="C:\Users\mra\Dropbox\Design Logo DBLP\Treffen 2013-01-24\dblp-icon.64x64.png"
       inkscape:export-xdpi="21.152206"
       inkscape:export-ydpi="21.152206"
       style="fill:black;fill-opacity:1"
       inkscape:connector-curvature="0" /><path
       clip-path="url(#SVGID_4_)"
       d="m 187,372.628 c 0,0 1.785,6.662 9.498,11.392 l 78.855,48.354 c 0,0 7.712,4.729 5.927,-1.934 l -22.525,-84.063 -63.707,29.61 c -6.351,2.951 -8.136,-3.711 -8.136,-3.711"
       id="path39"
       inkscape:export-filename="C:\Users\mra\Dropbox\Design Logo DBLP\Treffen 2013-01-24\dblp-icon.64x64.png"
       inkscape:export-xdpi="21.152206"
       inkscape:export-ydpi="21.152206"
       style="fill:black;fill-opacity:1"
       inkscape:connector-curvature="0" /><path
       clip-path="url(#SVGID_4_)"
       d="M 284.5,326.916 256.652,222.988 c 0,0 -1.785,-6.662 -8.134,-3.711 l -63.5777,29.36405 9.76285,36.41543 49.23785,30.08752 c 7.712,4.729 9.498,11.391 9.498,11.391 l 5.316,19.84 21.182,-9.845 c -0.001,0 6.349,-2.952 4.563,-9.614"
       id="path41"
       inkscape:export-filename="C:\Users\mra\Dropbox\Design Logo DBLP\Treffen 2013-01-24\dblp-icon.64x64.png"
       inkscape:export-xdpi="21.152206"
       inkscape:export-ydpi="21.152206"
       style="fill:black;fill-opacity:1"
       inkscape:connector-curvature="0"
       sodipodi:nodetypes="ccsccccccc" /><path
       clip-path="url(#SVGID_4_)"
       d="m 186.912,372.275 c 0,0 1.785,6.662 8.135,3.711 l 63.708,-29.612 -5.316,-19.839 c 0,0 -1.785,-6.662 -9.498,-11.392 l -49.25792,-30.10399 12.35079,46.2937 c 0.065,0.245 0.098,0.476 0.143,0.711 0.58083,5.30161 -4.707,8.903 -4.707,8.903 l -21.27229,9.94512"
       id="path43"
       inkscape:export-filename="C:\Users\mra\Dropbox\Design Logo DBLP\Treffen 2013-01-24\dblp-icon.64x64.png"
       inkscape:export-xdpi="21.152206"
       inkscape:export-ydpi="21.152206"
       inkscape:connector-curvature="0"
       style="fill:black"
       sodipodi:nodetypes="cccccccccc" /></g></svg>